<svg xmlns="http://www.w3.org/2000/svg" viewBox="0 0 240 240" fill="none" stroke="currentColor" stroke-width="1.6" stroke-linecap="round" stroke-linejoin="round" aria-hidden="true">
<ellipse cx="120" cy="216" rx="44" ry="5" fill="currentColor" opacity="0.5"></ellipse>
<ellipse cx="120" cy="214" rx="40" ry="3.5" fill="var(--paper-2, #efe2c2)" stroke="currentColor" stroke-width="1"></ellipse>
<path d="M80 40 L80 210 L160 210 L160 40 Z" fill="currentColor" opacity="0.1" stroke="currentColor" stroke-width="1.6"></path>

<ellipse cx="120" cy="40" rx="40" ry="6" fill="currentColor" opacity="0.18" stroke="currentColor" stroke-width="1.6"></ellipse>
<ellipse cx="120" cy="40" rx="36" ry="4" fill="var(--paper, #f6ecd5)" stroke="currentColor" stroke-width="1"></ellipse>

<path d="M82 64 Q120 60 158 64" stroke="currentColor" stroke-width="0.8" opacity="0.5" fill="none"></path>

<g>
  <path d="M94 78 L120 72 L130 86 L102 92 Z" fill="var(--paper, #f6ecd5)" stroke="currentColor" stroke-width="1.2"></path>
  <line x1="94" y1="78" x2="102" y2="84" stroke="var(--paper, #f6ecd5)" stroke-width="0.6" opacity="0.7"></line>
  <path d="M124 102 L148 96 L156 110 L132 116 Z" fill="var(--paper, #f6ecd5)" stroke="currentColor" stroke-width="1.2"></path>
  <line x1="124" y1="102" x2="132" y2="108" stroke="var(--paper, #f6ecd5)" stroke-width="0.6" opacity="0.7"></line>
</g>

<line x1="84" y1="50" x2="84" y2="200" stroke="var(--paper, #f6ecd5)" stroke-width="2" opacity="0.5"></line>

<path d="M84 200 Q120 210 156 200" stroke="var(--paper, #f6ecd5)" stroke-width="1" opacity="0.5" fill="none"></path>

</svg>