<svg xmlns="http://www.w3.org/2000/svg" viewBox="0 0 240 240" fill="none" stroke="currentColor" stroke-width="1.6" stroke-linecap="round" stroke-linejoin="round" aria-hidden="true">
<ellipse cx="120" cy="184" rx="92" ry="6" fill="currentColor" opacity="0.18"></ellipse>

<path d="M28 138 L28 174 Q28 178 32 178 L208 178 Q212 178 212 174 L212 138" fill="currentColor" opacity="0.94" stroke="currentColor" stroke-width="1.6"></path>
<g stroke="var(--paper, #f6ecd5)" stroke-width="0.7" opacity="0.6">
  <line x1="32" y1="148" x2="208" y2="148"></line>
  <line x1="32" y1="158" x2="208" y2="158"></line>
  <line x1="32" y1="168" x2="208" y2="168"></line>
</g>

<ellipse cx="120" cy="138" rx="92" ry="20" fill="currentColor" opacity="0.96" stroke="currentColor" stroke-width="1.8"></ellipse>
<ellipse cx="120" cy="138" rx="86" ry="16" fill="var(--paper-2, #efe2c2)" stroke="currentColor" stroke-width="1.2"></ellipse>



<g>
  <ellipse cx="68" cy="142" rx="14" ry="4" fill="currentColor" opacity="0.7"></ellipse>
  <path d="M54 138 L54 144 Q56 148 68 148 Q80 148 82 144 L82 138" fill="var(--paper, #f6ecd5)" stroke="currentColor" stroke-width="1.2"></path>
  
  <path d="M54 138 Q58 134 62 138 Q66 134 70 138 Q74 134 78 138 Q82 134 82 138" fill="var(--paper-2, #efe2c2)" stroke="currentColor" stroke-width="1.1"></path>
  
  <ellipse cx="68" cy="139" rx="6" ry="2" fill="currentColor" opacity="0.55"></ellipse>
  <circle cx="68" cy="139" r="1.5" fill="currentColor" opacity="0.85"></circle>
</g>

<g>
  <ellipse cx="104" cy="138" rx="14" ry="4" fill="currentColor" opacity="0.7"></ellipse>
  <path d="M90 134 L90 140 Q92 144 104 144 Q116 144 118 140 L118 134" fill="var(--paper, #f6ecd5)" stroke="currentColor" stroke-width="1.2"></path>
  
  <path d="M90 134 Q94 130 98 134 Q102 130 106 134 Q110 130 114 134 Q118 130 118 134" fill="var(--paper-2, #efe2c2)" stroke="currentColor" stroke-width="1.1"></path>
  
  <ellipse cx="104" cy="135" rx="6" ry="2" fill="currentColor" opacity="0.55"></ellipse>
  <circle cx="104" cy="135" r="1.5" fill="currentColor" opacity="0.85"></circle>
</g>

<g>
  <ellipse cx="140" cy="138" rx="14" ry="4" fill="currentColor" opacity="0.7"></ellipse>
  <path d="M126 134 L126 140 Q128 144 140 144 Q152 144 154 140 L154 134" fill="var(--paper, #f6ecd5)" stroke="currentColor" stroke-width="1.2"></path>
  
  <path d="M126 134 Q130 130 134 134 Q138 130 142 134 Q146 130 150 134 Q154 130 154 134" fill="var(--paper-2, #efe2c2)" stroke="currentColor" stroke-width="1.1"></path>
  
  <ellipse cx="140" cy="135" rx="6" ry="2" fill="currentColor" opacity="0.55"></ellipse>
  <circle cx="140" cy="135" r="1.5" fill="currentColor" opacity="0.85"></circle>
</g>

<g>
  <ellipse cx="176" cy="142" rx="14" ry="4" fill="currentColor" opacity="0.7"></ellipse>
  <path d="M162 138 L162 144 Q164 148 176 148 Q188 148 190 144 L190 138" fill="var(--paper, #f6ecd5)" stroke="currentColor" stroke-width="1.2"></path>
  
  <path d="M162 138 Q166 134 170 138 Q174 134 178 138 Q182 134 186 138 Q190 134 190 138" fill="var(--paper-2, #efe2c2)" stroke="currentColor" stroke-width="1.1"></path>
  
  <ellipse cx="176" cy="139" rx="6" ry="2" fill="currentColor" opacity="0.55"></ellipse>
  <circle cx="176" cy="139" r="1.5" fill="currentColor" opacity="0.85"></circle>
</g>

<g>
  <ellipse cx="86" cy="148" rx="14" ry="4" fill="currentColor" opacity="0.7"></ellipse>
  <path d="M72 144 L72 150 Q74 154 86 154 Q98 154 100 150 L100 144" fill="var(--paper, #f6ecd5)" stroke="currentColor" stroke-width="1.2"></path>
  
  <path d="M72 144 Q76 140 80 144 Q84 140 88 144 Q92 140 96 144 Q100 140 100 144" fill="var(--paper-2, #efe2c2)" stroke="currentColor" stroke-width="1.1"></path>
  
  <ellipse cx="86" cy="145" rx="6" ry="2" fill="currentColor" opacity="0.55"></ellipse>
  <circle cx="86" cy="145" r="1.5" fill="currentColor" opacity="0.85"></circle>
</g>

<g>
  <ellipse cx="122" cy="152" rx="14" ry="4" fill="currentColor" opacity="0.7"></ellipse>
  <path d="M108 148 L108 154 Q110 158 122 158 Q134 158 136 154 L136 148" fill="var(--paper, #f6ecd5)" stroke="currentColor" stroke-width="1.2"></path>
  
  <path d="M108 148 Q112 144 116 148 Q120 144 124 148 Q128 144 132 148 Q136 144 136 148" fill="var(--paper-2, #efe2c2)" stroke="currentColor" stroke-width="1.1"></path>
  
  <ellipse cx="122" cy="149" rx="6" ry="2" fill="currentColor" opacity="0.55"></ellipse>
  <circle cx="122" cy="149" r="1.5" fill="currentColor" opacity="0.85"></circle>
</g>

<g>
  <ellipse cx="158" cy="148" rx="14" ry="4" fill="currentColor" opacity="0.7"></ellipse>
  <path d="M144 144 L144 150 Q146 154 158 154 Q170 154 172 150 L172 144" fill="var(--paper, #f6ecd5)" stroke="currentColor" stroke-width="1.2"></path>
  
  <path d="M144 144 Q148 140 152 144 Q156 140 160 144 Q164 140 168 144 Q172 140 172 144" fill="var(--paper-2, #efe2c2)" stroke="currentColor" stroke-width="1.1"></path>
  
  <ellipse cx="158" cy="145" rx="6" ry="2" fill="currentColor" opacity="0.55"></ellipse>
  <circle cx="158" cy="145" r="1.5" fill="currentColor" opacity="0.85"></circle>
</g>



<g opacity="0.5" fill="none" stroke="currentColor" stroke-width="1.1">
  <path d="M80 100 Q72 84 84 72 Q92 60 80 48"></path>
  <path d="M120 92 Q112 76 124 64 Q132 52 120 40"></path>
  <path d="M160 100 Q152 84 164 72 Q172 60 160 48"></path>
</g>


<ellipse cx="204" cy="76" rx="22" ry="6" fill="currentColor" opacity="0.85"></ellipse>
<ellipse cx="204" cy="74" rx="20" ry="4.5" fill="var(--paper, #f6ecd5)" stroke="currentColor" stroke-width="1.2"></ellipse>
<ellipse cx="204" cy="74" rx="13" ry="3" fill="currentColor" opacity="0.55"></ellipse>

</svg>