<svg xmlns="http://www.w3.org/2000/svg" viewBox="0 0 240 240" fill="none" stroke="currentColor" stroke-width="1.6" stroke-linecap="round" stroke-linejoin="round" aria-hidden="true">
<line x1="20" y1="202" x2="220" y2="202" stroke="currentColor" stroke-width="1.4" opacity="0.4"></line>
<ellipse cx="120" cy="196" rx="98" ry="5" fill="currentColor" opacity="0.18"></ellipse>


<path d="M22 72 L78 64 L78 192 L22 200 Z" fill="var(--paper-2, #efe2c2)" stroke="currentColor" stroke-width="1.6"></path>

<path d="M78 64 L162 64 L162 192 L78 192 Z" fill="var(--paper, #f6ecd5)" stroke="currentColor" stroke-width="1.6"></path>

<path d="M162 64 L218 72 L218 200 L162 192 Z" fill="var(--paper-2, #efe2c2)" stroke="currentColor" stroke-width="1.6"></path>


<rect x="32" y="86" width="36" height="3" fill="currentColor" opacity="0.7"></rect>

<rect x="35" y="110" width="28" height="2" fill="currentColor" opacity="0.75"></rect>

<rect x="35" y="124" width="32" height="2" fill="currentColor" opacity="0.638"></rect>

<rect x="35" y="138" width="31" height="2" fill="currentColor" opacity="0.526"></rect>

<rect x="35" y="152" width="30" height="2" fill="currentColor" opacity="0.414"></rect>

<line x1="30" y1="172" x2="74" y2="172" stroke="currentColor" stroke-width="0.5" opacity="0.4"></line>
<rect x="30" y="180" width="14" height="2" fill="currentColor" opacity="0.55"></rect>



<rect x="106" y="78" width="28" height="12" fill="currentColor" opacity="0.92"></rect>
<line x1="120" y1="78" x2="120" y2="90" stroke="var(--paper, #f6ecd5)" stroke-width="0.7" opacity="0.55"></line>
<line x1="92" y1="100" x2="148" y2="100" stroke="currentColor" stroke-width="0.5" opacity="0.4"></line>

<rect x="100" y="108" width="40" height="2" fill="currentColor" opacity="0.55"></rect>


<g>
  <rect x="92" y="126" width="6" height="3" fill="currentColor" opacity="0.7"></rect>
  <rect x="102" y="126" width="28" height="2" fill="currentColor" opacity="0.65"></rect>
  <rect x="102" y="131" width="18" height="1.5" fill="currentColor" opacity="0.4"></rect>
</g>

<g>
  <rect x="92" y="142" width="6" height="3" fill="currentColor" opacity="0.7"></rect>
  <rect x="102" y="142" width="30" height="2" fill="currentColor" opacity="0.65"></rect>
  <rect x="102" y="147" width="21" height="1.5" fill="currentColor" opacity="0.4"></rect>
</g>

<g>
  <rect x="92" y="158" width="6" height="3" fill="currentColor" opacity="0.7"></rect>
  <rect x="102" y="158" width="32" height="2" fill="currentColor" opacity="0.65"></rect>
  <rect x="102" y="163" width="24" height="1.5" fill="currentColor" opacity="0.4"></rect>
</g>

<g>
  <rect x="92" y="174" width="6" height="3" fill="currentColor" opacity="0.7"></rect>
  <rect x="102" y="174" width="34" height="2" fill="currentColor" opacity="0.65"></rect>
  <rect x="102" y="179" width="27" height="1.5" fill="currentColor" opacity="0.4"></rect>
</g>



<rect x="172" y="86" width="32" height="3" fill="currentColor" opacity="0.7"></rect>

<rect x="170" y="110" width="24" height="2" fill="currentColor" opacity="0.7"></rect>

<rect x="174" y="124" width="28" height="2" fill="currentColor" opacity="0.588"></rect>

<rect x="173" y="138" width="27" height="2" fill="currentColor" opacity="0.476"></rect>

<rect x="172" y="152" width="26" height="2" fill="currentColor" opacity="0.36399999999999993"></rect>

<line x1="170" y1="172" x2="210" y2="172" stroke="currentColor" stroke-width="0.5" opacity="0.4"></line>

<g opacity="0.6">
  <rect x="194" y="178" width="14" height="14" fill="currentColor"></rect>
  <path d="M198 182 L204 188 M204 182 L198 188" stroke="var(--paper, #f6ecd5)" stroke-width="0.9"></path>
</g>


</svg>