<svg xmlns="http://www.w3.org/2000/svg" viewBox="0 0 240 240" fill="none" stroke="currentColor" stroke-width="1.6" stroke-linecap="round" stroke-linejoin="round" aria-hidden="true">
<ellipse cx="120" cy="180" rx="100" ry="6" fill="currentColor" opacity="0.18"></ellipse>
<path d="M22 116 Q120 102 218 116 L218 168 Q120 184 22 168 Z" fill="currentColor" opacity="0.9"></path>
<path d="M22 116 Q120 102 218 116 L218 162 Q120 178 22 162 Z" fill="var(--paper, #f6ecd5)" stroke="currentColor" stroke-width="1.6"></path>
<path d="M34 126 Q120 116 206 126" stroke="currentColor" stroke-width="0.7" opacity="0.4" fill="none"></path>
<path d="M34 154 Q120 168 206 154" stroke="currentColor" stroke-width="0.7" opacity="0.4" fill="none"></path>

<g transform="rotate(-14 120 140)">
  <line x1="12" y1="140" x2="228" y2="140" stroke="currentColor" stroke-width="1.6"></line>
  <g stroke="currentColor" stroke-width="0.7" opacity="0.6">
    <line x1="210" y1="138" x2="220" y2="138"></line><line x1="210" y1="142" x2="220" y2="142"></line>
  </g>
  
<path d="M54 128 L90 126 Q96 126 96 132 L96 148 Q96 154 90 154 L54 152 Q48 152 48 146 L48 134 Q48 128 54 128 Z" fill="currentColor" opacity="0.92" stroke="currentColor" stroke-width="1.4"></path>
<g stroke="var(--paper, #f6ecd5)" stroke-width="0.9" opacity="0.65"><line x1="56" y1="136" x2="90" y2="135"></line><line x1="56" y1="144" x2="90" y2="144"></line></g>
<path d="M108 128 L144 126 Q150 126 150 132 L150 148 Q150 154 144 154 L108 152 Q102 152 102 146 L102 134 Q102 128 108 128 Z" fill="currentColor" opacity="0.92" stroke="currentColor" stroke-width="1.4"></path>
<g stroke="var(--paper, #f6ecd5)" stroke-width="0.9" opacity="0.65"><line x1="110" y1="136" x2="144" y2="135"></line><line x1="110" y1="144" x2="144" y2="144"></line></g>
<path d="M162 128 L198 126 Q204 126 204 132 L204 148 Q204 154 198 154 L162 152 Q156 152 156 146 L156 134 Q156 128 162 128 Z" fill="currentColor" opacity="0.92" stroke="currentColor" stroke-width="1.4"></path>
<g stroke="var(--paper, #f6ecd5)" stroke-width="0.9" opacity="0.65"><line x1="164" y1="136" x2="198" y2="135"></line><line x1="164" y1="144" x2="198" y2="144"></line></g>
</g>

<g transform="rotate(10 120 144)">
  <line x1="12" y1="144" x2="228" y2="144" stroke="currentColor" stroke-width="1.6"></line>
  <g stroke="currentColor" stroke-width="0.7" opacity="0.6">
    <line x1="20" y1="142" x2="30" y2="142"></line><line x1="20" y1="146" x2="30" y2="146"></line>
  </g>
  
<path d="M54 132 L90 130 Q96 130 96 136 L96 152 Q96 158 90 158 L54 156 Q48 156 48 150 L48 138 Q48 132 54 132 Z" fill="currentColor" opacity="0.82" stroke="currentColor" stroke-width="1.4"></path>
<g stroke="var(--paper, #f6ecd5)" stroke-width="0.9" opacity="0.65"><line x1="56" y1="140" x2="90" y2="139"></line><line x1="56" y1="148" x2="90" y2="148"></line></g>
<path d="M108 132 L144 130 Q150 130 150 136 L150 152 Q150 158 144 158 L108 156 Q102 156 102 150 L102 138 Q102 132 108 132 Z" fill="currentColor" opacity="0.82" stroke="currentColor" stroke-width="1.4"></path>
<g stroke="var(--paper, #f6ecd5)" stroke-width="0.9" opacity="0.65"><line x1="110" y1="140" x2="144" y2="139"></line><line x1="110" y1="148" x2="144" y2="148"></line></g>
<path d="M162 132 L198 130 Q204 130 204 136 L204 152 Q204 158 198 158 L162 156 Q156 156 156 150 L156 138 Q156 132 162 132 Z" fill="currentColor" opacity="0.82" stroke="currentColor" stroke-width="1.4"></path>
<g stroke="var(--paper, #f6ecd5)" stroke-width="0.9" opacity="0.65"><line x1="164" y1="140" x2="198" y2="139"></line><line x1="164" y1="148" x2="198" y2="148"></line></g>
</g>

<g>
  <path d="M186 162 Q198 158 206 168 Q200 174 186 162 Z" fill="var(--paper, #f6ecd5)" stroke="currentColor" stroke-width="1.2"></path>
  <line x1="190" y1="164" x2="200" y2="170" stroke="currentColor" stroke-width="0.6" opacity="0.6"></line>
</g>

<path d="M168 198 Q186 192 204 198 Q204 210 186 210 Q168 210 168 198 Z" fill="currentColor" opacity="0.6" stroke="currentColor" stroke-width="1.1"></path>
<line x1="92" y1="186" x2="216" y2="186" stroke="currentColor" stroke-width="3"></line>
<line x1="92" y1="194" x2="216" y2="194" stroke="currentColor" stroke-width="3"></line>
<line x1="76" y1="186" x2="92" y2="186" stroke="currentColor" stroke-width="1.6"></line>
<line x1="76" y1="194" x2="92" y2="194" stroke="currentColor" stroke-width="1.6"></line>

</svg>