<svg xmlns="http://www.w3.org/2000/svg">
<!-- Existing Pantheon drawings, shared by the interactive hero. -->
<defs>
<g id="tufte"><g><rect vector-effect="non-scaling-stroke" x="300" y="470" width="240" height="170" rx="8"/><path vector-effect="non-scaling-stroke" d="M 322 537.9 L 339.8 533 L 357.6 525.4 L 375.5 521.2 L 393.3 581.1 L 411.1 601.3 L 428.9 568.1 L 446.7 563.5 L 464.5 531.9 L 482.4 500.1 L 500.2 548.3 L 518 580.5"/><circle vector-effect="non-scaling-stroke" cx="518" cy="580.5" r="7"/><circle vector-effect="non-scaling-stroke" cx="482.4" cy="500.1" r="7" style="stroke-width:3"/><rect vector-effect="non-scaling-stroke" x="580" y="470" width="240" height="170" rx="8"/><path vector-effect="non-scaling-stroke" d="M 602 519.6 L 619.8 536.9 L 637.6 537.5 L 655.5 587 L 673.3 606.7 L 691.1 557.2 L 708.9 542 L 726.7 530.4 L 744.5 507.8 L 762.4 557.1 L 780.2 597.9 L 798 577.1"/><circle vector-effect="non-scaling-stroke" cx="798" cy="577.1" r="7"/><circle vector-effect="non-scaling-stroke" cx="744.5" cy="507.8" r="7" style="stroke-width:3"/><line vector-effect="non-scaling-stroke" x1="602" y1="538" x2="798" y2="538" style="stroke-width:1.6"/><line vector-effect="non-scaling-stroke" x1="602" y1="582.2" x2="798" y2="582.2" style="stroke-width:1.6"/><rect vector-effect="non-scaling-stroke" x="860" y="470" width="240" height="170" rx="8"/><path vector-effect="non-scaling-stroke" d="M 882 551.4 L 899.8 556.6 L 917.6 587.9 L 935.5 603.9 L 953.3 545.9 L 971.1 522.5 L 988.9 532.7 L 1006.7 522.9 L 1024.5 565.6 L 1042.4 608.6 L 1060.2 574.4 L 1078 554.1"/><circle vector-effect="non-scaling-stroke" cx="1078" cy="554.1" r="7"/><circle vector-effect="non-scaling-stroke" cx="971.1" cy="522.5" r="7" style="stroke-width:3"/><rect vector-effect="non-scaling-stroke" x="300" y="680" width="240" height="170" rx="8"/><path vector-effect="non-scaling-stroke" d="M 322 785.4 L 339.8 793.5 L 357.6 803.4 L 375.5 746.1 L 393.3 718.2 L 411.1 748.6 L 428.9 753.2 L 446.7 782.4 L 464.5 820.8 L 482.4 778.7 L 500.2 742.5 L 518 745.2"/><circle vector-effect="non-scaling-stroke" cx="518" cy="745.2" r="7"/><circle vector-effect="non-scaling-stroke" cx="393.3" cy="718.2" r="7" style="stroke-width:3"/><rect vector-effect="non-scaling-stroke" x="580" y="680" width="240" height="170" rx="8"/><path vector-effect="non-scaling-stroke" d="M 602 784.6 L 619.8 786.9 L 637.6 739.3 L 655.5 711.3 L 673.3 757.1 L 691.1 775.2 L 708.9 786.5 L 726.7 814.2 L 744.5 770.8 L 762.4 724.5 L 780.2 741.2 L 798 741.8"/><circle vector-effect="non-scaling-stroke" cx="798" cy="741.8" r="7"/><circle vector-effect="non-scaling-stroke" cx="655.5" cy="711.3" r="7" style="stroke-width:3"/><rect vector-effect="non-scaling-stroke" x="860" y="680" width="240" height="170" rx="8"/><path vector-effect="non-scaling-stroke" d="M 882 766.9 L 899.8 736.5 L 917.6 712.9 L 935.5 766.8 L 953.3 795.7 L 971.1 787.2 L 988.9 799.9 L 1006.7 762 L 1024.5 712.8 L 1042.4 741 L 1060.2 762.7 L 1078 773.1"/><circle vector-effect="non-scaling-stroke" cx="1078" cy="773.1" r="7"/><circle vector-effect="non-scaling-stroke" cx="1024.5" cy="712.8" r="7" style="stroke-width:3"/></g></g>
<g id="itten"><g><circle vector-effect="non-scaling-stroke" cx="700" cy="700" r="560"/>
    <circle vector-effect="non-scaling-stroke" cx="700" cy="700" r="400"/>
    <path vector-effect="non-scaling-stroke" d="M 803.5 313.6 L 844.9 159.1"/>
    <path vector-effect="non-scaling-stroke" d="M 596.5 313.6 L 555.1 159.1"/>
    <path vector-effect="non-scaling-stroke" d="M 417.2 417.2 L 304.0 304.0"/>
    <path vector-effect="non-scaling-stroke" d="M 313.6 596.5 L 159.1 555.1"/>
    <path vector-effect="non-scaling-stroke" d="M 313.6 803.5 L 159.1 844.9"/>
    <path vector-effect="non-scaling-stroke" d="M 417.2 982.8 L 304.0 1096.0"/>
    <path vector-effect="non-scaling-stroke" d="M 596.5 1086.4 L 555.1 1240.9"/>
    <path vector-effect="non-scaling-stroke" d="M 803.5 1086.4 L 844.9 1240.9"/>
    <path vector-effect="non-scaling-stroke" d="M 982.8 982.8 L 1096.0 1096.0"/>
    <path vector-effect="non-scaling-stroke" d="M 1086.4 803.5 L 1240.9 844.9"/>
    <path vector-effect="non-scaling-stroke" d="M 1086.4 596.5 L 1240.9 555.1"/>
    <path vector-effect="non-scaling-stroke" d="M 982.8 417.2 L 1096.0 304.0"/>
    <path vector-effect="non-scaling-stroke" d="M 959.8 550.0 L 700.0 400.0 L 440.2 550.0 L 440.2 850.0 L 700.0 1000.0 L 959.8 850.0 Z"/>
    <path vector-effect="non-scaling-stroke" d="M 700.0 400.0 L 959.8 850.0 L 440.2 850.0 Z"/>
    <path vector-effect="non-scaling-stroke" d="M 700.0 700.0 L 829.9 625.0"/>
    <path vector-effect="non-scaling-stroke" d="M 700.0 700.0 L 700.0 850.0"/>
    <path vector-effect="non-scaling-stroke" d="M 700.0 700.0 L 570.1 625.0"/></g></g>
<g id="kare"><g><rect vector-effect="non-scaling-stroke" x="460" y="460" width="480" height="480" rx="40"/><line vector-effect="non-scaling-stroke" x1="700" y1="460" x2="700" y2="760"/><rect vector-effect="non-scaling-stroke" x="560" y="580" width="52" height="52" rx="4"/><rect vector-effect="non-scaling-stroke" x="788" y="580" width="52" height="52" rx="4"/><path vector-effect="non-scaling-stroke" d="M 700 760 L 660 800"/><path vector-effect="non-scaling-stroke" d="M 540 790 Q 700 920 860 790"/></g></g>
<g id="vignelli"><g><path vector-effect="non-scaling-stroke" d="M 560 160 V 600 L 860 900 H 1240"/><circle vector-effect="non-scaling-stroke" cx="560" cy="330" r="18"/><circle vector-effect="non-scaling-stroke" cx="1120" cy="900" r="18"/><path vector-effect="non-scaling-stroke" d="M 620 160 V 575.1 L 884.9 840 H 1240"/><circle vector-effect="non-scaling-stroke" cx="620" cy="330" r="18"/><circle vector-effect="non-scaling-stroke" cx="1120" cy="840" r="18"/><path vector-effect="non-scaling-stroke" d="M 680 160 V 550.3 L 909.7 780 H 1240"/><circle vector-effect="non-scaling-stroke" cx="680" cy="330" r="18"/><circle vector-effect="non-scaling-stroke" cx="1120" cy="780" r="18"/><path vector-effect="non-scaling-stroke" d="M 740 160 V 525.4 L 934.6 720 H 1240"/><circle vector-effect="non-scaling-stroke" cx="740" cy="330" r="18"/><circle vector-effect="non-scaling-stroke" cx="1120" cy="720" r="18"/><circle vector-effect="non-scaling-stroke" cx="1000" cy="900" r="34"/><circle vector-effect="non-scaling-stroke" cx="1000" cy="900" r="14"/></g></g>
<g id="rams"><g><rect vector-effect="non-scaling-stroke" x="540" y="300" width="320" height="780" rx="24"/><circle vector-effect="non-scaling-stroke" cx="600" cy="370" r="9"/><circle vector-effect="non-scaling-stroke" cx="640" cy="370" r="9"/><circle vector-effect="non-scaling-stroke" cx="680" cy="370" r="9"/><circle vector-effect="non-scaling-stroke" cx="720" cy="370" r="9"/><circle vector-effect="non-scaling-stroke" cx="760" cy="370" r="9"/><circle vector-effect="non-scaling-stroke" cx="800" cy="370" r="9"/><circle vector-effect="non-scaling-stroke" cx="600" cy="410" r="9"/><circle vector-effect="non-scaling-stroke" cx="640" cy="410" r="9"/><circle vector-effect="non-scaling-stroke" cx="680" cy="410" r="9"/><circle vector-effect="non-scaling-stroke" cx="720" cy="410" r="9"/><circle vector-effect="non-scaling-stroke" cx="760" cy="410" r="9"/><circle vector-effect="non-scaling-stroke" cx="800" cy="410" r="9"/><circle vector-effect="non-scaling-stroke" cx="600" cy="450" r="9"/><circle vector-effect="non-scaling-stroke" cx="640" cy="450" r="9"/><circle vector-effect="non-scaling-stroke" cx="680" cy="450" r="9"/><circle vector-effect="non-scaling-stroke" cx="720" cy="450" r="9"/><circle vector-effect="non-scaling-stroke" cx="760" cy="450" r="9"/><circle vector-effect="non-scaling-stroke" cx="800" cy="450" r="9"/><circle vector-effect="non-scaling-stroke" cx="600" cy="490" r="9"/><circle vector-effect="non-scaling-stroke" cx="640" cy="490" r="9"/><circle vector-effect="non-scaling-stroke" cx="680" cy="490" r="9"/><circle vector-effect="non-scaling-stroke" cx="720" cy="490" r="9"/><circle vector-effect="non-scaling-stroke" cx="760" cy="490" r="9"/><circle vector-effect="non-scaling-stroke" cx="800" cy="490" r="9"/><circle vector-effect="non-scaling-stroke" cx="600" cy="530" r="9"/><circle vector-effect="non-scaling-stroke" cx="640" cy="530" r="9"/><circle vector-effect="non-scaling-stroke" cx="680" cy="530" r="9"/><circle vector-effect="non-scaling-stroke" cx="720" cy="530" r="9"/><circle vector-effect="non-scaling-stroke" cx="760" cy="530" r="9"/><circle vector-effect="non-scaling-stroke" cx="800" cy="530" r="9"/><circle vector-effect="non-scaling-stroke" cx="600" cy="570" r="9"/><circle vector-effect="non-scaling-stroke" cx="640" cy="570" r="9"/><circle vector-effect="non-scaling-stroke" cx="680" cy="570" r="9"/><circle vector-effect="non-scaling-stroke" cx="720" cy="570" r="9"/><circle vector-effect="non-scaling-stroke" cx="760" cy="570" r="9"/><circle vector-effect="non-scaling-stroke" cx="800" cy="570" r="9"/><circle vector-effect="non-scaling-stroke" cx="600" cy="610" r="9"/><circle vector-effect="non-scaling-stroke" cx="640" cy="610" r="9"/><circle vector-effect="non-scaling-stroke" cx="680" cy="610" r="9"/><circle vector-effect="non-scaling-stroke" cx="720" cy="610" r="9"/><circle vector-effect="non-scaling-stroke" cx="760" cy="610" r="9"/><circle vector-effect="non-scaling-stroke" cx="800" cy="610" r="9"/><circle vector-effect="non-scaling-stroke" cx="600" cy="650" r="9"/><circle vector-effect="non-scaling-stroke" cx="640" cy="650" r="9"/><circle vector-effect="non-scaling-stroke" cx="680" cy="650" r="9"/><circle vector-effect="non-scaling-stroke" cx="720" cy="650" r="9"/><circle vector-effect="non-scaling-stroke" cx="760" cy="650" r="9"/><circle vector-effect="non-scaling-stroke" cx="800" cy="650" r="9"/><circle vector-effect="non-scaling-stroke" cx="700" cy="900" r="100"/><line vector-effect="non-scaling-stroke" x1="700" y1="800" x2="700" y2="832" style="stroke-width:3"/><line vector-effect="non-scaling-stroke" x1="700" y1="788" x2="700" y2="776"/><line vector-effect="non-scaling-stroke" x1="756" y1="803" x2="762" y2="792.6"/><line vector-effect="non-scaling-stroke" x1="797" y1="844" x2="807.4" y2="838"/><line vector-effect="non-scaling-stroke" x1="812" y1="900" x2="824" y2="900"/><line vector-effect="non-scaling-stroke" x1="797" y1="956" x2="807.4" y2="962"/><line vector-effect="non-scaling-stroke" x1="756" y1="997" x2="762" y2="1007.4"/><line vector-effect="non-scaling-stroke" x1="700" y1="1012" x2="700" y2="1024"/><line vector-effect="non-scaling-stroke" x1="644" y1="997" x2="638" y2="1007.4"/><line vector-effect="non-scaling-stroke" x1="603" y1="956" x2="592.6" y2="962"/><line vector-effect="non-scaling-stroke" x1="588" y1="900" x2="576" y2="900"/><line vector-effect="non-scaling-stroke" x1="603" y1="844" x2="592.6" y2="838"/><line vector-effect="non-scaling-stroke" x1="644" y1="803" x2="638" y2="792.6"/><rect vector-effect="non-scaling-stroke" x="780" y="1000" width="40" height="60" rx="20"/></g></g>
<g id="muller-brockmann"><g transform="translate(1400 0) scale(-1 1)"><rect vector-effect="non-scaling-stroke" x="300" y="660" width="420" height="420" style="stroke-width:2.4;"/><rect vector-effect="non-scaling-stroke" x="600" y="440" width="320" height="320"/><rect vector-effect="non-scaling-stroke" x="830" y="290" width="240" height="240"/><rect vector-effect="non-scaling-stroke" x="1000" y="190" width="180" height="180"/><rect vector-effect="non-scaling-stroke" x="1120" y="130" width="130" height="130"/><rect vector-effect="non-scaling-stroke" x="1206" y="92" width="90" height="90"/></g></g>
</defs>
</svg>
