<?xml version="1.0" encoding="UTF-8"?>
<!--
Copyright (C) 2009/2010/2011 Ulrich Apel.
This work is distributed under the conditions of the Creative Commons
Attribution-Share Alike 3.0 Licence. This means you are free:
* to Share - to copy, distribute and transmit the work
* to Remix - to adapt the work

Under the following conditions:
* Attribution. You must attribute the work by stating your use of KanjiVG in
  your own copyright header and linking to KanjiVG's website
  (http://kanjivg.tagaini.net)
* Share Alike. If you alter, transform, or build upon this work, you may
  distribute the resulting work only under the same or similar license to this
  one.

See http://creativecommons.org/licenses/by-sa/3.0/ for more details.
-->
<!DOCTYPE svg PUBLIC "-//W3C//DTD SVG 1.0//EN" "http://www.w3.org/TR/2001/REC-SVG-20010904/DTD/svg10.dtd" [
<!ATTLIST g
xmlns:kvg CDATA #FIXED "http://kanjivg.tagaini.net"
kvg:element CDATA #IMPLIED
kvg:variant CDATA #IMPLIED
kvg:partial CDATA #IMPLIED
kvg:original CDATA #IMPLIED
kvg:part CDATA #IMPLIED
kvg:number CDATA #IMPLIED
kvg:tradForm CDATA #IMPLIED
kvg:radicalForm CDATA #IMPLIED
kvg:position CDATA #IMPLIED
kvg:radical CDATA #IMPLIED
kvg:phon CDATA #IMPLIED >
<!ATTLIST path
xmlns:kvg CDATA #FIXED "http://kanjivg.tagaini.net"
kvg:type CDATA #IMPLIED >
]>
<svg xmlns="http://www.w3.org/2000/svg" width="109" height="109" viewBox="0 0 109 109">
<g id="kvg:StrokePaths_06b53" style="fill:none;stroke:#000000;stroke-width:3;stroke-linecap:round;stroke-linejoin:round;">
<g id="kvg:06b53" kvg:element="歓">
	<g id="kvg:06b53-g1" kvg:position="left" kvg:phon="雚V">
		<g id="kvg:06b53-g2" kvg:element="𠂉">
			<path id="kvg:06b53-s1" kvg:type="㇒" d="M28.45,15.43c0,0.7-0.21,1.73-0.6,2.45C24.25,24.5,20.5,29,11.64,37.05" pathLength="1" stroke-dasharray="1 1" stroke-dashoffset="1">
      <animate attributeName="stroke-dashoffset"
               values="1;1;0;0"
               keyTimes="0;0.0000;0.0500;1"
               dur="5s"
               repeatCount="indefinite"/>
    </path>
			<path id="kvg:06b53-s2" kvg:type="㇐" d="M22.5,30.58c0.69,0.05,1.96,0.19,3.53-0.01c4.64-0.6,13.28-2.17,16.99-2.83c1.7-0.3,3.28-0.28,4.98,0.03" pathLength="1" stroke-dasharray="1 1" stroke-dashoffset="1">
      <animate attributeName="stroke-dashoffset"
               values="1;1;0;0"
               keyTimes="0;0.0500;0.1000;1"
               dur="5s"
               repeatCount="indefinite"/>
    </path>
		</g>
		<path id="kvg:06b53-s3" kvg:type="㇐" d="M10.25,44.72c2.52,0.95,5.86,0.18,8.41-0.25c8.44-1.45,20.12-3.06,27.22-4.09c1.71-0.25,3.96-0.3,5.63,0.07" pathLength="1" stroke-dasharray="1 1" stroke-dashoffset="1">
      <animate attributeName="stroke-dashoffset"
               values="1;1;0;0"
               keyTimes="0;0.1000;0.1500;1"
               dur="5s"
               repeatCount="indefinite"/>
    </path>
		<g id="kvg:06b53-g3" kvg:element="隹">
			<g id="kvg:06b53-g4" kvg:element="亻" kvg:variant="true" kvg:original="人">
				<path id="kvg:06b53-s4" kvg:type="㇒" d="M30.56,32.91c0.06,1.09-0.23,2.55-0.77,4.12c-3.38,9.69-9.25,19.29-21.04,30.22" pathLength="1" stroke-dasharray="1 1" stroke-dashoffset="1">
      <animate attributeName="stroke-dashoffset"
               values="1;1;0;0"
               keyTimes="0;0.1500;0.2000;1"
               dur="5s"
               repeatCount="indefinite"/>
    </path>
				<path id="kvg:06b53-s5" kvg:type="㇑" d="M22.42,56.45c1.07,1.07,1.26,2.87,1.26,4.55c0.03,6.37-0.02,17.37-0.02,25.75c0,4.74-0.1,6.08-0.01,7.5" pathLength="1" stroke-dasharray="1 1" stroke-dashoffset="1">
      <animate attributeName="stroke-dashoffset"
               values="1;1;0;0"
               keyTimes="0;0.2000;0.2500;1"
               dur="5s"
               repeatCount="indefinite"/>
    </path>
			</g>
			<path id="kvg:06b53-s6" kvg:type="㇒" d="M39.19,44.15c0.04,0.42-0.01,0.98-0.15,1.34c-0.89,2.31-2.01,4.09-4.04,6.89" pathLength="1" stroke-dasharray="1 1" stroke-dashoffset="1">
      <animate attributeName="stroke-dashoffset"
               values="1;1;0;0"
               keyTimes="0;0.2500;0.3000;1"
               dur="5s"
               repeatCount="indefinite"/>
    </path>
			<path id="kvg:06b53-s7" kvg:type="㇐b" d="M24.15,56.52c5.48-0.9,15.7-2.97,21.88-3.76c1.81-0.23,3.16-0.41,3.75-0.5" pathLength="1" stroke-dasharray="1 1" stroke-dashoffset="1">
      <animate attributeName="stroke-dashoffset"
               values="1;1;0;0"
               keyTimes="0;0.3000;0.3500;1"
               dur="5s"
               repeatCount="indefinite"/>
    </path>
			<path id="kvg:06b53-s8" kvg:type="㇑a" d="M37.08,55.51c0.71,0.71,0.77,1.86,0.77,2.93c0,5.04-0.1,21.75-0.1,25.56" pathLength="1" stroke-dasharray="1 1" stroke-dashoffset="1">
      <animate attributeName="stroke-dashoffset"
               values="1;1;0;0"
               keyTimes="0;0.3500;0.4000;1"
               dur="5s"
               repeatCount="indefinite"/>
    </path>
			<path id="kvg:06b53-s9" kvg:type="㇐b" d="M24.72,65.04c4.48-0.48,15.51-1.97,21.31-2.75c1.58-0.21,2.75-0.37,3.28-0.44" pathLength="1" stroke-dasharray="1 1" stroke-dashoffset="1">
      <animate attributeName="stroke-dashoffset"
               values="1;1;0;0"
               keyTimes="0;0.4000;0.4500;1"
               dur="5s"
               repeatCount="indefinite"/>
    </path>
			<path id="kvg:06b53-s10" kvg:type="㇐b" d="M25.03,74.98c4.56-0.39,14.45-1.62,20.22-2.44c1.85-0.26,3.25-0.46,3.87-0.52" pathLength="1" stroke-dasharray="1 1" stroke-dashoffset="1">
      <animate attributeName="stroke-dashoffset"
               values="1;1;0;0"
               keyTimes="0;0.4500;0.5000;1"
               dur="5s"
               repeatCount="indefinite"/>
    </path>
			<path id="kvg:06b53-s11" kvg:type="㇐b" d="M24.76,86.38c4.65-0.56,14.64-1.27,20.74-1.87c1.82-0.18,3.18-0.32,3.78-0.41" pathLength="1" stroke-dasharray="1 1" stroke-dashoffset="1">
      <animate attributeName="stroke-dashoffset"
               values="1;1;0;0"
               keyTimes="0;0.5000;0.5500;1"
               dur="5s"
               repeatCount="indefinite"/>
    </path>
		</g>
	</g>
	<g id="kvg:06b53-g5" kvg:element="欠" kvg:position="right" kvg:radical="general">
		<g id="kvg:06b53-g6" kvg:position="top">
			<path id="kvg:06b53-s12" kvg:type="㇒" d="M66.69,16.25c0.03,0.65,0.19,1.71-0.06,2.63c-1.89,6.87-5.68,17.19-11.14,24.62" pathLength="1" stroke-dasharray="1 1" stroke-dashoffset="1">
      <animate attributeName="stroke-dashoffset"
               values="1;1;0;0"
               keyTimes="0;0.5500;0.6000;1"
               dur="5s"
               repeatCount="indefinite"/>
    </path>
			<path id="kvg:06b53-s13" kvg:type="㇖a" d="M62.35,37.99c2.15,0.01,3.74-0.08,5.3-0.49c4.01-1.04,15.06-4.13,20.87-4.94C93.83,31.82,88.25,39,80,45.5" pathLength="1" stroke-dasharray="1 1" stroke-dashoffset="1">
      <animate attributeName="stroke-dashoffset"
               values="1;1;0;0"
               keyTimes="0;0.6000;0.6500;1"
               dur="5s"
               repeatCount="indefinite"/>
    </path>
		</g>
		<g id="kvg:06b53-g7" kvg:position="bottom">
			<path id="kvg:06b53-s14" kvg:type="㇒" d="M67.46,46c0.42,1.25,0.39,2.89,0.13,4.52C65.62,62.88,61.12,81.5,46.75,93" pathLength="1" stroke-dasharray="1 1" stroke-dashoffset="1">
      <animate attributeName="stroke-dashoffset"
               values="1;1;0;0"
               keyTimes="0;0.6500;0.7000;1"
               dur="5s"
               repeatCount="indefinite"/>
    </path>
			<path id="kvg:06b53-s15" kvg:type="㇏" d="M66.75,59.25c4.12,5.88,12.88,17.5,20.97,26.9c2.02,2.35,4.33,4.77,7.03,6.35" pathLength="1" stroke-dasharray="1 1" stroke-dashoffset="1">
      <animate attributeName="stroke-dashoffset"
               values="1;1;0;0"
               keyTimes="0;0.7000;0.7500;1"
               dur="5s"
               repeatCount="indefinite"/>
    </path>
		</g>
	</g>
</g>
</g>
<g id="kvg:StrokeNumbers_animated" style="display:none;font-size:8;fill:#808080">
	<text transform="matrix(1 0 0 1 20.50 16.50)">1</text>
	<text transform="matrix(1 0 0 1 30.75 26.50)">2</text>
	<text transform="matrix(1 0 0 1 2.25 46.48)">3</text>
	<text transform="matrix(1 0 0 1 21.50 39.13)">4</text>
	<text transform="matrix(1 0 0 1 15.75 70.55)">5</text>
	<text transform="matrix(1 0 0 1 43.50 48.50)">6</text>
	<text transform="matrix(1 0 0 1 29.25 52.63)">7</text>
	<text transform="matrix(1 0 0 1 40.50 59.50)">8</text>
	<text transform="matrix(1 0 0 1 27.75 62.98)">9</text>
	<text transform="matrix(1 0 0 1 26.24 71.90)">10</text>
	<text transform="matrix(1 0 0 1 26.50 83.50)">11</text>
	<text transform="matrix(1 0 0 1 54.50 15.50)">12</text>
	<text transform="matrix(1 0 0 1 68.50 32.50)">13</text>
	<text transform="matrix(1 0 0 1 56.50 52.55)">14</text>
	<text transform="matrix(1 0 0 1 72.75 63.13)">15</text>
</g>
</svg>
