<?xml version="1.0" encoding="UTF-8" standalone="no"?>
<svg
   width="1400"
   height="1400"
   viewBox="0 0 1400 1400"
   version="1.1"
   id="svg2"
   xmlns="http://www.w3.org/2000/svg"
   xmlns:svg="http://www.w3.org/2000/svg">
  <defs
     id="defs2" />
  <title
     id="title1">Paula Scher PS monogram 02-paula-scher-display-italic</title>
  <desc
     id="desc1">Transparent vector path motif made from editable outline paths in warm orange.</desc>
  <g
     id="paula-scher-ps-02-paula-scher-display-italic"
     fill="none"
     stroke="#E3892D"
     stroke-width="6.8"
     stroke-linecap="round"
     stroke-linejoin="round">
    <path
       d="m 43.6,1015 1.04,-10.4 h 13.52 q 32.24,0 58.24,-9.36 27.04,-9.36 34.32,-43.68 l 127.92,-598 q 4.16,-17.68 5.2,-26 1.04,-8.32 1.04,-13.52 0,-20.8 -20.8,-26 -19.76,-5.2 -53.04,-5.2 h -13.52 l 2.08,-10.4 h 320.32 q 141.44,0 213.2,52 72.8,52 72.8,151.84 0,40.56 -13.52,85.28 -12.48,44.72 -48.88,84.24 -35.36,39.52 -102.96,64.48 Q 574,735.24 465.84,735.24 H 406.56 L 360.8,935.96 q -3.12,13.52 -5.2,22.88 -2.08,9.36 -2.08,14.56 0,19.76 21.84,26 22.88,5.2 55.12,5.2 h 34.32 l -2.08,10.4 z M 438.8,724.84 q 40.56,0 69.68,-29.12 29.12,-30.16 47.84,-76.96 18.72,-47.84 27.04,-102.96 9.36,-56.16 9.36,-108.16 0,-68.64 -18.72,-96.72 -17.68,-28.08 -53.04,-28.08 H 506.4 l -97.76,442 z"
       id="text1"
       style="font-style:italic;font-weight:900;font-size:1040px;font-family:'Noto Serif Display'"
       aria-label="P" />
    <path
       d="m 865.92,1096.3 q -151.42,0 -226,-46.33 -73.45,-47.46 -73.45,-120.91 0,-61.02 48.59,-90.4 48.59,-30.51 131.08,-30.51 0,150.29 40.68,213.57 40.68,63.28 113,63.28 51.98,0 87.01,-30.51 35.03,-30.51 35.03,-93.79 0,-48.59 -18.08,-79.1 -16.95,-31.64 -51.98,-55.37 -35.03,-24.86 -89.27,-55.37 -99.44,-56.5 -145.77,-111.87 -46.33,-55.37 -46.33,-133.34 0,-80.23 40.68,-137.86 40.68,-57.63 111.87,-89.27 71.19,-31.64 160.46,-31.64 141.25,0 204.53,38.42 64.41,38.42 64.41,91.53 0,54.24 -39.55,83.62 -39.55,29.38 -133.34,29.38 0,-81.36 -6.78,-132.21 -5.65,-50.85 -27.12,-74.58 -20.34,-24.86 -64.41,-24.86 -63.28,0 -99.44,37.29 -36.16,36.16 -36.16,96.05 0,50.85 21.47,81.36 22.6,29.38 62.15,51.98 39.55,22.6 91.53,50.85 87.01,42.94 126.56,96.05 40.68,51.98 40.68,125.43 0,91.53 -40.68,153.68 -39.55,62.15 -111.87,93.79 -72.32,31.64 -169.5,31.64 z"
       id="text2"
       style="font-style:italic;font-weight:900;font-size:1130px;font-family:'Noto Serif Display'"
       aria-label="S" />
  </g>
</svg>
