<?xml version="1.0" encoding="UTF-8" standalone="no"?>
<svg width="1400" height="1400" viewBox="0 0 1400 1400" version="1.1" xmlns="http://www.w3.org/2000/svg">
  <title>Johannes Itten Farbkreis johannes-itten-farbkreis</title>
  <desc>Transparent vector motif in warm orange after the twelve-hue color circle in Kunst der Farbe (1961): ring of twelve, hexagon of secondaries, triangle of primaries.</desc>
  <g id="johannes-itten-farbkreis" fill="none" stroke="#E3892D" stroke-width="6.8" stroke-linecap="round" stroke-linejoin="round">
    <circle cx="700" cy="700" r="560"/>
    <circle cx="700" cy="700" r="400"/>
    <path d="M 803.5 313.6 L 844.9 159.1"/>
    <path d="M 596.5 313.6 L 555.1 159.1"/>
    <path d="M 417.2 417.2 L 304.0 304.0"/>
    <path d="M 313.6 596.5 L 159.1 555.1"/>
    <path d="M 313.6 803.5 L 159.1 844.9"/>
    <path d="M 417.2 982.8 L 304.0 1096.0"/>
    <path d="M 596.5 1086.4 L 555.1 1240.9"/>
    <path d="M 803.5 1086.4 L 844.9 1240.9"/>
    <path d="M 982.8 982.8 L 1096.0 1096.0"/>
    <path d="M 1086.4 803.5 L 1240.9 844.9"/>
    <path d="M 1086.4 596.5 L 1240.9 555.1"/>
    <path d="M 982.8 417.2 L 1096.0 304.0"/>
    <path d="M 959.8 550.0 L 700.0 400.0 L 440.2 550.0 L 440.2 850.0 L 700.0 1000.0 L 959.8 850.0 Z"/>
    <path d="M 700.0 400.0 L 959.8 850.0 L 440.2 850.0 Z"/>
    <path d="M 700.0 700.0 L 829.9 625.0"/>
    <path d="M 700.0 700.0 L 700.0 850.0"/>
    <path d="M 700.0 700.0 L 570.1 625.0"/>
  </g>
</svg>
