<?xml version="1.0" encoding="UTF-8"?>
<svg xmlns="http://www.w3.org/2000/svg" viewBox="0 0 1400 1400" width="700" height="700"><title>Jakob Nielsen card motif, candidate C</title><desc>The F-shaped reading pattern as heat.</desc><style>path,line,circle,rect{fill:none;stroke:#E3892D;stroke-width:1.6;stroke-linecap:round;stroke-linejoin:round;vector-effect:non-scaling-stroke}</style><rect x="520" y="260" width="560" height="760" rx="20"/><circle cx="620" cy="360" r="28"/><circle cx="620" cy="360" r="12" style="stroke-width:3"/><circle cx="740" cy="360" r="28"/><circle cx="740" cy="360" r="12" style="stroke-width:3"/><circle cx="860" cy="360" r="28"/><circle cx="860" cy="360" r="12" style="stroke-width:3"/><circle cx="980" cy="360" r="28"/><circle cx="980" cy="360" r="12" style="stroke-width:3"/><circle cx="620" cy="480" r="28"/><circle cx="620" cy="480" r="12" style="stroke-width:3"/><circle cx="740" cy="480" r="28"/><circle cx="740" cy="480" r="12" style="stroke-width:3"/><circle cx="860" cy="480" r="28"/><circle cx="860" cy="480" r="12" style="stroke-width:3"/><circle cx="620" cy="600" r="28"/><circle cx="620" cy="600" r="12" style="stroke-width:3"/><circle cx="620" cy="720" r="28"/><circle cx="620" cy="720" r="12" style="stroke-width:3"/><circle cx="620" cy="840" r="28"/><circle cx="620" cy="840" r="12" style="stroke-width:3"/><circle cx="620" cy="940" r="28"/><circle cx="620" cy="940" r="12" style="stroke-width:3"/></svg>
