<?xml version="1.0" encoding="UTF-8"?>
<svg xmlns="http://www.w3.org/2000/svg" viewBox="0 0 1400 1400" width="700" height="700"><title>Don Norman card motif</title><desc>The coffeepot for masochists from the cover of The Design of Everyday Things: spout and handle on the same side.</desc><style>path,line,circle,rect{fill:none;stroke:#E3892D;stroke-width:1.6;stroke-linecap:round;stroke-linejoin:round;vector-effect:non-scaling-stroke}</style><path d="M 520 620 C 520 560 560 520 640 520 H 860 C 940 520 980 560 980 620 V 980 C 980 1060 920 1110 840 1110 H 660 C 580 1110 520 1060 520 980 Z"/><path d="M 560 520 C 560 462 940 462 940 520"/><circle cx="750" cy="440" r="26"/><path d="M 980 700 C 1090 690 1160 620 1200 500 L 1252 522 C 1206 664 1124 764 980 790"/><path d="M 980 840 C 1124 828 1176 900 1176 962 C 1176 1034 1112 1084 980 1064"/><path d="M 760 330 C 730 300 760 270 740 240" style="stroke-width:1.6;stroke-dasharray:6 10"/></svg>
