<svg xmlns="http://www.w3.org/2000/svg" width="1400" height="1400" viewBox="0 0 1400 1400" fill="none" role="img" aria-labelledby="title desc">
  <title id="title">Tobias Frere-Jones Type AS Motif</title>
  <desc id="desc">Transparent vector path motif built from a high-contrast display serif typeface, combining capital A and S as warm orange outline typography.</desc>
  <defs>
    <style>
      .glyph {
        fill: none;
        stroke: #E3892D;
        stroke-width: 6.8;
        stroke-linecap: round;
        stroke-linejoin: round;
        vector-effect: non-scaling-stroke;
      }
    </style>
  </defs>
  <g id="type-as-motif" aria-label="AS">
    <g id="letter-a" transform="translate(150.000 1080.000) scale(1.1204482 -1.1204482)">
      <path class="glyph" d="M-2 0V10H23Q56 10 70.5 22.5Q85 35 98 74L320 714H352L593 61Q604 29 615.5 19.5Q627 10 654 10H670V0H426V10H456Q494 10 507.0 18.0Q520 26 520 45Q520 57 514.0 79.0Q508 101 503 114L450 259H174L124 118Q120 105 113.5 83.5Q107 62 107 49Q107 28 124.0 19.0Q141 10 187 10H225V0ZM177 269H447L370 483Q354 529 337.5 576.5Q321 624 310 660Q299 626 284.0 582.0Q269 538 255 496Z"/>
    </g>
    <g id="letter-s" transform="translate(727.345 1080.000) scale(1.1204482 -1.1204482)">
      <path class="glyph" d="M258 -10Q194 -10 149.5 9.0Q105 28 82.5 59.0Q60 90 60 127Q60 183 111 183Q112 0 262 0Q332 0 370.0 40.5Q408 81 408 157Q408 200 392.0 229.0Q376 258 340.0 283.0Q304 308 246 337Q199 362 160.5 388.0Q122 414 100.0 452.0Q78 490 78 549Q78 629 130.5 676.5Q183 724 271 724Q324 724 364.0 708.5Q404 693 426.5 667.5Q449 642 449 611Q449 587 434.0 573.5Q419 560 394 560Q394 639 364.0 676.5Q334 714 270 714Q206 714 171.0 675.5Q136 637 136 566Q136 520 152.5 491.0Q169 462 202.0 439.5Q235 417 285 392Q333 367 374.5 341.0Q416 315 442.0 277.0Q468 239 468 179Q468 94 414.0 42.0Q360 -10 258 -10Z"/>
    </g>
  </g>
</svg>
